<svg width="91" height="91" viewBox="0 0 91 91" fill="none" xmlns="http://www.w3.org/2000/svg">
<g clip-path="url(#clip0)">
<path d="M10.8289 78.988H2.23853V77.623H5.75113V75.8212H7.33453V77.623H10.8289V78.988ZM3.05753 82.81V82.3186C3.05753 80.899 4.22233 79.5522 6.55193 79.5522C8.88153 79.5522 10.0463 80.9172 10.0463 82.3186V82.81C10.0463 84.2114 8.88153 85.5764 6.55193 85.5764C4.22233 85.5582 3.05753 84.1932 3.05753 82.81ZM8.51753 82.719V82.3914C8.51753 81.5906 7.88053 80.8262 6.55193 80.8262C5.22333 80.8262 4.58633 81.5906 4.58633 82.3914V82.719C4.58633 83.5198 5.24153 84.2842 6.55193 84.2842C7.86233 84.2842 8.51753 83.5198 8.51753 82.719ZM6.35173 89.3802H14.3051V90.7816H4.75013V86.632H6.35173V89.3802ZM16.0159 81.809H13.8865V86.8322H12.3031V75.9668H13.8865V80.4258H16.0159V81.809Z" fill="white"/>
<path d="M18.6004 85.8312H22.841V83.2286H16.835V81.8636H26.4992C26.7722 80.6624 26.8814 79.4976 26.8814 78.5148V77.9142H18.6368V76.5492H28.5012V78.5694C28.5012 79.4794 28.392 80.717 28.1736 81.8454H30.576V83.2104H24.4608V85.813H28.6468V91.0546H27.0452V87.178H18.6004V85.8312Z" fill="white"/>
<path d="M36.0905 83.5381C35.945 83.9021 35.6537 84.2479 35.1259 84.8121C34.4707 85.5401 33.6517 86.3773 32.5597 87.3783L31.5042 86.2863C32.487 85.4127 33.2695 84.6119 34.0157 83.7929C35.0895 82.6099 35.2716 81.9911 35.2716 80.7899V78.7151H32.0502V77.3137H40.0217V78.7151H36.8913V80.8081C36.8913 82.1003 37.0733 82.5735 38.2199 83.8293C38.9115 84.5937 39.6031 85.2307 40.5677 86.0679L39.5122 87.1599C38.402 86.1589 37.7285 85.4673 37.1097 84.8121C36.6547 84.3025 36.2362 83.8475 36.0905 83.5381ZM45.6273 82.9011H43.316V90.9455H41.7143V75.9669H43.316V81.4997H45.6273V82.9011Z" fill="white"/>
<path d="M48.3573 91.0364V87.3236H56.5837V86.2316H48.2845V84.9212H50.1227V83.4834H46.4099V82.1548H60.1509V83.4834H56.4199V84.9212H58.1671V88.6158H49.9407V89.726H58.6039V91.0364H48.3573ZM58.0579 78.5148V78.8788C58.0579 80.3712 56.2379 81.3722 53.2713 81.3722C50.3047 81.3722 48.4847 80.3712 48.4847 78.8788V78.5148C48.4847 77.0224 50.3047 76.0032 53.2713 76.0032C56.2379 76.0032 58.0579 77.0224 58.0579 78.5148ZM56.4745 78.8242V78.5694C56.4745 77.896 55.3097 77.35 53.2531 77.35C51.1965 77.35 50.0317 77.8778 50.0317 78.5694V78.8242C50.0317 79.5158 51.1965 80.0436 53.2531 80.0436C55.3097 80.0436 56.4745 79.4976 56.4745 78.8242ZM51.7061 84.9212H54.8001V83.4834H51.7061V84.9212Z" fill="white"/>
<path d="M67.2125 90.9454V85.813H61.1519V84.448H74.8929V85.813H68.8323V90.9454H67.2125ZM68.0497 80.4622C67.8495 80.8262 67.3035 81.2448 66.2297 81.7726C65.3561 82.2094 64.2459 82.7372 62.8991 83.265L62.2621 81.9546C63.4633 81.4996 64.6645 80.9718 65.7019 80.3894C67.0123 79.6796 67.2125 78.9698 67.2307 78.1872H62.9173V76.8222H73.1639V78.1872H68.8505C68.8687 78.988 69.0507 79.6796 70.3611 80.3894C71.3985 80.9536 72.5997 81.4996 73.8009 81.9546L73.1821 83.2468C71.8353 82.719 70.7251 82.1912 69.8515 81.7544C68.7777 81.2266 68.2499 80.8262 68.0497 80.4622Z" fill="white"/>
<path d="M83.1375 83.7929C81.6269 84.0295 80.7351 84.1023 76.5127 84.1023V76.7677H82.2275V78.0781H78.0233V79.7707H82.1365V81.0447H78.0233V82.7737C80.4621 82.7737 81.4267 82.7009 82.9555 82.4825L83.1375 83.7929ZM78.8423 85.7403H88.6703V91.0911H87.0687V87.1235H78.8423V85.7403ZM87.1233 75.9669H88.6703V84.9759H87.1233V80.8445H85.5399V84.9395H84.0111V76.1489H85.5399V79.4613H87.1233V75.9669Z" fill="white"/>
<path d="M38.6568 0.0910034H54.8912L83.0648 62.608C83.7018 64.0094 82.6644 65.611 81.1174 65.611H67.3764C65.8658 65.611 64.4826 64.7192 63.8638 63.336L36.7094 3.094C36.0724 1.6926 37.0916 0.0910034 38.6568 0.0910034Z" fill="#92C48C"/>
<g opacity="0.5">
<g opacity="0.5">
<path opacity="0.5" d="M9.06371 65.611H23.1505C23.2415 65.611 23.3325 65.5928 23.4235 65.5746L47.5385 57.0934C48.5577 56.7294 48.3029 55.237 47.2291 55.237H33.4335C33.2697 55.237 33.1241 55.2552 32.9785 55.3098L8.77251 63.8274C7.77151 64.155 8.02631 65.611 9.06371 65.611Z" fill="#C6D546"/>
</g>
</g>
<path d="M45.045 34.6892L39.3484 47.2472H50.7234L45.045 34.6892Z" fill="#35683C"/>
<path d="M9.08188 65.611H22.5317C24.2425 65.611 25.8077 64.61 26.5175 63.0448L54.8913 0.0910034H38.1837C36.4729 0.0910034 34.9077 1.092 34.1979 2.6572L7.17087 62.6262C6.53387 64.0276 7.55308 65.611 9.08188 65.611Z" fill="#4DA955"/>
</g>
<defs>
<clipPath id="clip0">
<rect width="91" height="91" fill="white"/>
</clipPath>
</defs>
</svg>
