<svg width="110" height="108" viewBox="0 0 110 108" fill="none" xmlns="http://www.w3.org/2000/svg">
<g filter="url(#filter0_d)">
<circle cx="50" cy="50" r="50" fill="#00B55E"/>
<circle cx="50" cy="50" r="40" fill="#00B55E"/>
<circle cx="50" cy="50" r="39" stroke="white" stroke-opacity="0.5" stroke-width="2"/>
<path d="M32.204 50.022C30.174 49.392 29.306 47.88 29.306 46.326V45.01H27.43V46.172C27.43 47.922 26.562 49.644 24.406 50.358L25.372 51.814C26.842 51.296 27.836 50.302 28.396 49.042C28.942 50.134 29.88 51.002 31.238 51.45L32.204 50.022ZM30.538 55.776C28.886 55.776 28.004 55.44 28.004 54.712C28.004 53.998 28.886 53.662 30.538 53.662C32.176 53.662 33.058 53.998 33.058 54.712C33.058 55.44 32.176 55.776 30.538 55.776ZM30.538 52.234C27.85 52.234 26.17 53.158 26.17 54.712C26.17 56.28 27.85 57.204 30.538 57.204C33.212 57.204 34.892 56.28 34.892 54.712C34.892 53.158 33.212 52.234 30.538 52.234ZM34.752 47.306V44.324H32.904V51.94H34.752V48.832H36.46V47.306H34.752ZM44.7749 49.224C43.3749 49.518 42.1009 49.602 39.8049 49.616V46.578H43.7109V45.094H37.9709V51.1H39.0489C41.9049 51.1 43.3749 51.03 44.9569 50.68L44.7749 49.224ZM41.0649 53.55H45.8249V55.608H41.0649V53.55ZM39.2449 57.05H47.6309V52.094H39.2449V57.05ZM49.3389 47.208H47.6309V44.296H45.7829V51.534H47.6309V48.706H49.3389V47.208ZM54.0838 53.06C53.2158 53.06 52.5718 52.472 52.5718 51.492C52.5718 50.512 53.2158 49.91 54.0838 49.91C54.9518 49.91 55.5818 50.512 55.5818 51.478C55.5818 52.472 54.9518 53.06 54.0838 53.06ZM54.0838 48.412C52.2078 48.412 50.8078 49.686 50.8078 51.478C50.8078 53.298 52.2078 54.572 54.0838 54.572C55.9458 54.572 57.3318 53.298 57.3318 51.478C57.3318 49.686 55.9458 48.412 54.0838 48.412ZM54.9938 44.534H53.1458V46.214H50.2898V47.684H57.7938V46.214H54.9938V44.534ZM62.3298 49.35H60.4818V44.31H58.6338V57.204H60.4818V50.876H62.3298V49.35ZM63.9527 45.64V47.11H68.2507C67.9847 49.966 66.5567 51.982 63.2667 53.564L64.2327 55.02C68.8107 52.808 70.1407 49.588 70.1407 45.64H63.9527ZM72.1147 44.296V57.19H73.9767V44.296H72.1147Z" fill="white"/>
<path d="M102 99C87.913 98.6243 78.1304 91.6433 75 88.1997C80.4783 82.4082 90.9652 72.5158 89.087 79.2777C87.2087 86.0396 96.913 95.2434 102 99Z" fill="#00B55E"/>
</g>
<defs>
<filter id="filter0_d" x="0" y="0" width="110" height="108" filterUnits="userSpaceOnUse" color-interpolation-filters="sRGB">
<feFlood flood-opacity="0" result="BackgroundImageFix"/>
<feColorMatrix in="SourceAlpha" type="matrix" values="0 0 0 0 0 0 0 0 0 0 0 0 0 0 0 0 0 0 127 0"/>
<feOffset dx="4" dy="4"/>
<feGaussianBlur stdDeviation="2"/>
<feColorMatrix type="matrix" values="0 0 0 0 0 0 0 0 0 0 0 0 0 0 0 0 0 0 0.2 0"/>
<feBlend mode="normal" in2="BackgroundImageFix" result="effect1_dropShadow"/>
<feBlend mode="normal" in="SourceGraphic" in2="effect1_dropShadow" result="shape"/>
</filter>
</defs>
</svg>
