<svg width="50" height="83" viewBox="0 0 50 83" fill="none" xmlns="http://www.w3.org/2000/svg">
<g filter="url(#filter0_d)">
<path d="M25 2C15.2925 2 7.39514 10.0215 7.39514 19.8808V34.1197C7.39514 43.979 15.2925 52 25 52C34.7069 52 42.6049 44.0033 42.6049 34.1744V19.8808C42.6049 10.0215 34.7069 2 25 2ZM39.2936 34.1744C39.2936 42.1777 32.8819 48.6888 25 48.6888C17.1187 48.6888 10.7065 42.1529 10.7065 34.1192V19.8808C10.7065 11.8471 17.1187 5.31123 25 5.31123C32.882 5.31123 39.2936 11.8471 39.2936 19.8808V34.1744Z" fill="#00BC08"/>
<path d="M25 15.6865C24.0856 15.6865 23.3444 16.4277 23.3444 17.3422V23.1369C23.3444 24.0514 24.0856 24.7926 25 24.7926C25.9145 24.7926 26.6557 24.0514 26.6557 23.1369V17.3422C26.6557 16.4277 25.9145 15.6865 25 15.6865Z" fill="#00BC08"/>
</g>
<g filter="url(#filter1_d)">
<path d="M18.3051 59.306C17.8975 59.7141 17.8975 60.3756 18.3051 60.7836L24.2089 66.694C24.4372 66.9225 24.745 67.0231 25.0432 66.9956C25.3122 66.9969 25.5816 66.8949 25.7868 66.6897L31.6941 60.7828C32.102 60.375 32.102 59.7139 31.6941 59.3061C31.2863 58.8983 30.6251 58.8983 30.2173 59.3061L24.9962 64.5269L19.781 59.306C19.3735 58.898 18.7126 58.898 18.3051 59.306Z" fill="#00BC08" stroke="#00BC08"/>
</g>
<g filter="url(#filter2_d)">
<path d="M18.3051 68.306C17.8975 68.7141 17.8975 69.3756 18.3051 69.7836L24.2089 75.694C24.4372 75.9225 24.745 76.0231 25.0432 75.9956C25.3122 75.9969 25.5816 75.8949 25.7868 75.6897L31.6941 69.7828C32.102 69.375 32.102 68.7139 31.6941 68.3061C31.2863 67.8983 30.6251 67.8983 30.2173 68.3061L24.9962 73.5269L19.781 68.306C19.3735 67.898 18.7126 67.898 18.3051 68.306Z" fill="#00BC08"/>
<path d="M18.3051 68.306C17.8975 68.7141 17.8975 69.3756 18.3051 69.7836L24.2089 75.694C24.4372 75.9225 24.745 76.0231 25.0432 75.9956C25.3122 75.9969 25.5816 75.8949 25.7868 75.6897L31.6941 69.7828C32.102 69.375 32.102 68.7139 31.6941 68.3061C31.2863 67.8983 30.6251 67.8983 30.2173 68.3061L24.9962 73.5269L19.781 68.306C19.3735 67.898 18.7126 67.898 18.3051 68.306Z" stroke="#00BC08"/>
</g>
<defs>
<filter id="filter0_d" x="-4" y="0" width="58" height="58" filterUnits="userSpaceOnUse" color-interpolation-filters="sRGB">
<feFlood flood-opacity="0" result="BackgroundImageFix"/>
<feColorMatrix in="SourceAlpha" type="matrix" values="0 0 0 0 0 0 0 0 0 0 0 0 0 0 0 0 0 0 127 0"/>
<feOffset dy="2"/>
<feGaussianBlur stdDeviation="2"/>
<feColorMatrix type="matrix" values="0 0 0 0 0 0 0 0 0 0 0 0 0 0 0 0 0 0 0.4 0"/>
<feBlend mode="normal" in2="BackgroundImageFix" result="effect1_dropShadow"/>
<feBlend mode="normal" in="SourceGraphic" in2="effect1_dropShadow" result="shape"/>
</filter>
<filter id="filter1_d" x="9" y="49" width="32" height="32" filterUnits="userSpaceOnUse" color-interpolation-filters="sRGB">
<feFlood flood-opacity="0" result="BackgroundImageFix"/>
<feColorMatrix in="SourceAlpha" type="matrix" values="0 0 0 0 0 0 0 0 0 0 0 0 0 0 0 0 0 0 127 0"/>
<feOffset dy="2"/>
<feGaussianBlur stdDeviation="2"/>
<feColorMatrix type="matrix" values="0 0 0 0 0 0 0 0 0 0 0 0 0 0 0 0 0 0 0.4 0"/>
<feBlend mode="normal" in2="BackgroundImageFix" result="effect1_dropShadow"/>
<feBlend mode="normal" in="SourceGraphic" in2="effect1_dropShadow" result="shape"/>
</filter>
<filter id="filter2_d" x="13.4994" y="65.5" width="23.0006" height="17" filterUnits="userSpaceOnUse" color-interpolation-filters="sRGB">
<feFlood flood-opacity="0" result="BackgroundImageFix"/>
<feColorMatrix in="SourceAlpha" type="matrix" values="0 0 0 0 0 0 0 0 0 0 0 0 0 0 0 0 0 0 127 0"/>
<feOffset dy="2"/>
<feGaussianBlur stdDeviation="2"/>
<feColorMatrix type="matrix" values="0 0 0 0 0 0 0 0 0 0 0 0 0 0 0 0 0 0 0.4 0"/>
<feBlend mode="normal" in2="BackgroundImageFix" result="effect1_dropShadow"/>
<feBlend mode="normal" in="SourceGraphic" in2="effect1_dropShadow" result="shape"/>
</filter>
</defs>
</svg>
