<svg width="50" height="83" viewBox="0 0 50 83" fill="none" xmlns="http://www.w3.org/2000/svg">
<g filter="url(#filter0_d)">
<path d="M24.9999 2C15.2924 2 7.39502 10.0215 7.39502 19.8808V34.1197C7.39502 43.979 15.2924 52 24.9999 52C34.7068 52 42.6048 44.0033 42.6048 34.1744V19.8808C42.6048 10.0215 34.7068 2 24.9999 2ZM39.2934 34.1744C39.2934 42.1777 32.8817 48.6888 24.9999 48.6888C17.1186 48.6888 10.7063 42.1529 10.7063 34.1192V19.8808C10.7063 11.8471 17.1186 5.31123 24.9999 5.31123C32.8818 5.31123 39.2934 11.8471 39.2934 19.8808V34.1744Z" fill="white"/>
<path d="M24.9999 15.6865C24.0854 15.6865 23.3442 16.4277 23.3442 17.3422V23.1369C23.3442 24.0514 24.0854 24.7926 24.9999 24.7926C25.9144 24.7926 26.6556 24.0514 26.6556 23.1369V17.3422C26.6556 16.4277 25.9144 15.6865 24.9999 15.6865Z" fill="white"/>
</g>
<g filter="url(#filter1_d)">
<path d="M18.305 59.306C17.8974 59.7141 17.8974 60.3756 18.305 60.7836L24.2088 66.694C24.4371 66.9225 24.7449 67.0231 25.0431 66.9956C25.3121 66.9969 25.5815 66.8949 25.7867 66.6897L31.694 60.7828C32.1019 60.375 32.1019 59.7139 31.694 59.3061C31.2862 58.8983 30.625 58.8983 30.2172 59.3061L24.9961 64.5269L19.7809 59.306C19.3733 58.898 18.7125 58.898 18.305 59.306Z" fill="white" stroke="white"/>
</g>
<g filter="url(#filter2_d)">
<path d="M18.3052 68.306C17.8976 68.7141 17.8976 69.3756 18.3052 69.7836L24.209 75.694C24.4373 75.9225 24.7451 76.0231 25.0433 75.9956C25.3123 75.9969 25.5817 75.8949 25.7869 75.6897L31.6942 69.7828C32.1021 69.375 32.1021 68.7139 31.6942 68.3061C31.2864 67.8983 30.6252 67.8983 30.2174 68.3061L24.9963 73.5269L19.7812 68.306C19.3736 67.898 18.7128 67.898 18.3052 68.306Z" fill="white"/>
<path d="M18.3052 68.306C17.8976 68.7141 17.8976 69.3756 18.3052 69.7836L24.209 75.694C24.4373 75.9225 24.7451 76.0231 25.0433 75.9956C25.3123 75.9969 25.5817 75.8949 25.7869 75.6897L31.6942 69.7828C32.1021 69.375 32.1021 68.7139 31.6942 68.3061C31.2864 67.8983 30.6252 67.8983 30.2174 68.3061L24.9963 73.5269L19.7812 68.306C19.3736 67.898 18.7128 67.898 18.3052 68.306Z" stroke="white"/>
</g>
<defs>
<filter id="filter0_d" x="-4" y="0" width="58" height="58" filterUnits="userSpaceOnUse" color-interpolation-filters="sRGB">
<feFlood flood-opacity="0" result="BackgroundImageFix"/>
<feColorMatrix in="SourceAlpha" type="matrix" values="0 0 0 0 0 0 0 0 0 0 0 0 0 0 0 0 0 0 127 0"/>
<feOffset dy="2"/>
<feGaussianBlur stdDeviation="2"/>
<feColorMatrix type="matrix" values="0 0 0 0 0 0 0 0 0 0 0 0 0 0 0 0 0 0 0.4 0"/>
<feBlend mode="normal" in2="BackgroundImageFix" result="effect1_dropShadow"/>
<feBlend mode="normal" in="SourceGraphic" in2="effect1_dropShadow" result="shape"/>
</filter>
<filter id="filter1_d" x="9" y="49" width="32" height="32" filterUnits="userSpaceOnUse" color-interpolation-filters="sRGB">
<feFlood flood-opacity="0" result="BackgroundImageFix"/>
<feColorMatrix in="SourceAlpha" type="matrix" values="0 0 0 0 0 0 0 0 0 0 0 0 0 0 0 0 0 0 127 0"/>
<feOffset dy="2"/>
<feGaussianBlur stdDeviation="2"/>
<feColorMatrix type="matrix" values="0 0 0 0 0 0 0 0 0 0 0 0 0 0 0 0 0 0 0.4 0"/>
<feBlend mode="normal" in2="BackgroundImageFix" result="effect1_dropShadow"/>
<feBlend mode="normal" in="SourceGraphic" in2="effect1_dropShadow" result="shape"/>
</filter>
<filter id="filter2_d" x="13.4995" y="65.5" width="23.0006" height="17" filterUnits="userSpaceOnUse" color-interpolation-filters="sRGB">
<feFlood flood-opacity="0" result="BackgroundImageFix"/>
<feColorMatrix in="SourceAlpha" type="matrix" values="0 0 0 0 0 0 0 0 0 0 0 0 0 0 0 0 0 0 127 0"/>
<feOffset dy="2"/>
<feGaussianBlur stdDeviation="2"/>
<feColorMatrix type="matrix" values="0 0 0 0 0 0 0 0 0 0 0 0 0 0 0 0 0 0 0.4 0"/>
<feBlend mode="normal" in2="BackgroundImageFix" result="effect1_dropShadow"/>
<feBlend mode="normal" in="SourceGraphic" in2="effect1_dropShadow" result="shape"/>
</filter>
</defs>
</svg>
